<?xml version="1.0" encoding="UTF-8"?>
<svg version="1.1" xmlns="http://www.w3.org/2000/svg" width="800" height="433">
<path d="M0 0 C264 0 528 0 800 0 C800 142.89 800 285.78 800 433 C536 433 272 433 0 433 C0 290.11 0 147.22 0 0 Z " fill="#FE0914" transform="translate(0,0)"/>
<path d="M0 0 C0 142.89 0 285.78 0 433 C-239.25 433 -478.5 433 -725 433 C-719.37609457 428.50087566 -719.37609457 428.50087566 -716.65234375 426.703125 C-716.04583984 426.3009375 -715.43933594 425.89875 -714.81445312 425.484375 C-713.88536133 424.87335938 -713.88536133 424.87335938 -712.9375 424.25 C-711.71739315 423.44279111 -710.49734313 422.63549632 -709.27734375 421.828125 C-708.61460449 421.39048828 -707.95186523 420.95285156 -707.26904297 420.50195312 C-702.50395654 417.34778789 -697.75367142 414.17132993 -693 411 C-691.00004982 409.66659194 -689.00005035 408.33325781 -687 407 C-686.01 406.34 -685.02 405.68 -684 405 C-653.75 384.83333333 -623.5 364.66666667 -593.25 344.5 C-592.63044434 344.08685547 -592.01088867 343.67371094 -591.37255859 343.24804688 C-590.13109759 342.42062202 -588.88923981 341.59379217 -587.64697266 340.76757812 C-584.38770567 338.59873082 -581.13737729 336.41785995 -577.8984375 334.21875 C-577.22490234 333.76371094 -576.55136719 333.30867188 -575.85742188 332.83984375 C-574.57228111 331.97126586 -573.28956547 331.09908462 -572.00976562 330.22265625 C-568.7776014 328.04407042 -565.68718828 326.28008046 -562 325 C-562 324.34 -562 323.68 -562 323 C-560.33627837 321.92741755 -558.61452323 320.94470191 -556.875 320 C-552.00731098 317.24794967 -547.45386543 314.2936892 -542.9375 311 C-538.01728965 307.41971913 -533.03235404 304.04500304 -527.87109375 300.81640625 C-524.58863767 298.73975036 -521.35335737 296.59675672 -518.125 294.4375 C-517.50488037 294.02298584 -516.88476074 293.60847168 -516.24584961 293.18139648 C-514.16339563 291.78834941 -512.08167619 290.39420905 -510 289 C-494.78485754 278.81410518 -479.55014665 268.66977442 -464 259 C-463.67 259.66 -463.34 260.32 -463 261 C-463.7409668 263.19555664 -463.7409668 263.19555664 -464.94921875 265.91015625 C-465.38556641 266.90080078 -465.82191406 267.89144531 -466.27148438 268.91210938 C-466.73876953 269.95173828 -467.20605469 270.99136719 -467.6875 272.0625 C-468.35942383 273.58133789 -468.35942383 273.58133789 -469.04492188 275.13085938 C-470.35590452 278.09058876 -471.67704045 281.0456084 -473 284 C-473.77794209 285.74843182 -474.55534874 287.49710204 -475.33203125 289.24609375 C-475.65534424 289.97368896 -475.97865723 290.70128418 -476.31176758 291.45092773 C-476.53888428 291.96212158 -476.76600098 292.47331543 -477 293 C-475.96939453 292.566875 -475.96939453 292.566875 -474.91796875 292.125 C-474.01691406 291.75375 -473.11585938 291.3825 -472.1875 291 C-471.29417969 290.62875 -470.40085937 290.2575 -469.48046875 289.875 C-467 289 -467 289 -464 289 C-464 288.34 -464 287.68 -464 287 C-461.6257055 286.0502822 -459.25115386 285.1013112 -456.875 284.15625 C-454.99414365 283.39981864 -453.11879992 282.62949542 -451.25 281.84375 C-450.38375 281.4828125 -449.5175 281.121875 -448.625 280.75 C-447.83351563 280.41484375 -447.04203125 280.0796875 -446.2265625 279.734375 C-444 279 -444 279 -440 279 C-440 278.34 -440 277.68 -440 277 C-436.66666667 275.66666667 -433.33333333 274.33333333 -430 273 C-428.69095703 272.43925781 -428.69095703 272.43925781 -427.35546875 271.8671875 C-425 271 -425 271 -422 271 C-421.74605469 271.78503906 -421.49210937 272.57007813 -421.23046875 273.37890625 C-418.91684244 280.44109891 -416.48382427 287.14697728 -413.0625 293.75 C-407 305.71114865 -407 305.71114865 -407 312 C-406.34 312 -405.68 312 -405 312 C-404.49166409 313.24663331 -403.99368855 314.49749387 -403.5 315.75 C-403.2215625 316.44609375 -402.943125 317.1421875 -402.65625 317.859375 C-402 320 -402 320 -402 324 C-401.34 324 -400.68 324 -400 324 C-399.87625 323.46375 -399.7525 322.9275 -399.625 322.375 C-398.87793984 319.5361714 -397.94696636 316.77776798 -397 314 C-396.34 314 -395.68 314 -395 314 C-394.91234375 313.20851563 -394.8246875 312.41703125 -394.734375 311.6015625 C-393.78264132 306.93401753 -392.06322452 302.76750127 -390.25 298.375 C-389.71028564 297.04746704 -389.71028564 297.04746704 -389.15966797 295.69311523 C-388.11358688 293.12573873 -387.0588669 290.56212604 -386 288 C-385.72510742 287.33403809 -385.45021484 286.66807617 -385.16699219 285.98193359 C-384.1217539 283.45467201 -383.06943454 280.93058059 -382.0078125 278.41015625 C-380.97912165 275.95007 -379.98418193 273.47818783 -379 271 C-375.76222476 271.40472191 -373.2532526 272.31316559 -370.40625 273.828125 C-365.90036528 276.12431397 -361.26511878 277.82494219 -356.5 279.5 C-351.04537344 281.41743694 -345.82887972 283.44984479 -340.70898438 286.15039062 C-338.82982148 287.13403487 -338.82982148 287.13403487 -336 288 C-332.1271092 289.2909636 -328.61130797 291.11185421 -325 293 C-327.77803455 285.67071735 -330.63982775 278.39094951 -333.68359375 271.16796875 C-335.42653733 266.97352589 -337.08775483 262.7474214 -338.75610352 258.52294922 C-340.69820763 253.64971232 -342.84058431 248.89690049 -345.1171875 244.171875 C-346 242 -346 242 -346 239 C-339.43778695 235.43495157 -332.72667201 232.65902251 -325.7109375 230.14404297 C-321.64461761 228.67442192 -317.86045922 226.93521728 -314 225 C-311.31500317 223.89412901 -308.59887343 222.88066013 -305.875 221.875 C-305.17246094 221.61074219 -304.46992188 221.34648437 -303.74609375 221.07421875 C-300.52295703 219.8739202 -297.345844 218.79100367 -294 218 C-294 217.34 -294 216.68 -294 216 C-295.60875 215.6596875 -295.60875 215.6596875 -297.25 215.3125 C-304.39864221 213.52533945 -311.24695237 210.50105837 -317.75 207.0625 C-322.3621297 204.66923102 -327.24937499 203.00630305 -332.12011719 201.22436523 C-336.93399934 199.44673067 -341.48150818 197.4475164 -346 195 C-341.98196802 178.44083792 -336.03243975 172.63131788 -321.67578125 163.67578125 C-319.31621424 162.19803783 -316.99649127 160.68003494 -314.6875 159.125 C-310.66278401 156.43209912 -306.62068414 153.76713032 -302.5625 151.125 C-301.94656982 150.71910645 -301.33063965 150.31321289 -300.69604492 149.89501953 C-296.22921251 147 -296.22921251 147 -294 147 C-294 146.34 -294 145.68 -294 145 C-292.68 144.67 -291.36 144.34 -290 144 C-290 143.34 -290 142.68 -290 142 C-288.06990676 140.6754847 -286.07766603 139.4410947 -284.0625 138.25 C-282.8688837 137.53797823 -281.67617951 136.82442526 -280.484375 136.109375 C-279.89333984 135.75552734 -279.30230469 135.40167969 -278.69335938 135.03710938 C-275.6180473 133.15361374 -272.66383367 131.09388026 -269.70703125 129.03125 C-268 128 -268 128 -266 128 C-266 127.34 -266 126.68 -266 126 C-264.25446445 124.86330245 -262.44988474 123.81687611 -260.625 122.8125 C-255.49125491 119.91716509 -250.70479927 116.77780529 -245.9609375 113.28515625 C-244 112 -244 112 -242 112 C-242 111.34 -242 110.68 -242 110 C-239.63125244 108.40295762 -237.27677797 106.9350121 -234.8125 105.5 C-233.80219727 104.89478516 -233.80219727 104.89478516 -232.77148438 104.27734375 C-229.26584798 102.20474311 -225.85037702 100.37566868 -222 99 C-222 98.34 -222 97.68 -222 97 C-220.68 96.67 -219.36 96.34 -218 96 C-218 95.34 -218 94.68 -218 94 C-217.071875 93.484375 -216.14375 92.96875 -215.1875 92.4375 C-210.79002088 89.94138993 -206.58110545 87.16497406 -202.35546875 84.390625 C-200 83 -200 83 -198 83 C-198 82.34 -198 81.68 -198 81 C-196.1640625 79.73828125 -196.1640625 79.73828125 -193.625 78.3125 C-188.19135193 75.16467838 -183.11157671 71.63979514 -178 68 C-172.32258065 64 -172.32258065 64 -170 64 C-170 63.34 -170 62.68 -170 62 C-168.25446445 60.86330245 -166.44988474 59.81687611 -164.625 58.8125 C-159.49125491 55.91716509 -154.70479927 52.77780529 -149.9609375 49.28515625 C-148 48 -148 48 -146 48 C-146 47.34 -146 46.68 -146 46 C-144.22753906 44.703125 -144.22753906 44.703125 -141.765625 43.25 C-140.88132812 42.7240625 -139.99703125 42.198125 -139.0859375 41.65625 C-138.15007813 41.1096875 -137.21421875 40.563125 -136.25 40 C-135.32960938 39.4534375 -134.40921875 38.906875 -133.4609375 38.34375 C-129.68932275 36.1135778 -125.94183352 33.91777098 -122 32 C-122 31.34 -122 30.68 -122 30 C-121.00613281 29.44828125 -120.01226563 28.8965625 -118.98828125 28.328125 C-114.20545412 25.59645743 -109.70105066 22.47912857 -105.16601562 19.359375 C-100.21193731 16 -100.21193731 16 -98 16 C-98 15.34 -98 14.68 -98 14 C-97.45472656 13.70867188 -96.90945313 13.41734375 -96.34765625 13.1171875 C-72.21698113 0 -72.21698113 0 0 0 Z " fill="#018921" transform="translate(800,0)"/>
<path d="M0 0 C2.65928792 3.18343742 4.02176699 6.30235728 5.4375 10.1875 C7.11215887 14.66982137 8.85574284 19.06597402 10.83203125 23.421875 C12.43391825 26.95781286 13.99980377 30.50910013 15.5625 34.0625 C15.85560059 34.72354736 16.14870117 35.38459473 16.45068359 36.06567383 C22 48.69013391 22 48.69013391 22 52 C29.18659357 49.72424537 36.06554664 46.948233 43 44 C44.99930883 43.1650098 46.99930432 42.33166173 49 41.5 C49.98355469 41.09007812 50.96710938 40.68015625 51.98046875 40.2578125 C54.04526691 39.39770253 56.11038629 38.53836339 58.17578125 37.6796875 C59.21089844 37.24914062 60.24601563 36.81859375 61.3125 36.375 C62.29734375 35.96636719 63.2821875 35.55773437 64.296875 35.13671875 C66.56660997 34.18224928 68.81523011 33.19310607 71.0625 32.1875 C74 31 74 31 77 31 C77 31.66 77 32.32 77 33 C76.34 33 75.68 33 75 33 C74.89042969 33.56847656 74.78085937 34.13695312 74.66796875 34.72265625 C73.61822066 39.83484409 72.17916406 44.26268682 70 49 C69.67 49.99 69.34 50.98 69 52 C68.34 52 67.68 52 67 52 C66.9175 52.78375 66.835 53.5675 66.75 54.375 C65.4541377 60.63833443 62.87602969 66.40017934 59.9375 72.0625 C57.78799612 76.2170747 56.36429276 80.53504188 55 85 C56.485 85.37125 56.485 85.37125 58 85.75 C60.72362977 86.5258547 63.11999404 87.49603942 65.625 88.8125 C70.08937456 91.13466028 74.72205531 92.86902494 79.42578125 94.64453125 C88.72557444 98.17133806 97.94943243 101.87167093 107 106 C107 106.66 107 107.32 107 108 C100.86855613 110.59619696 94.7227292 113.1297948 88.5 115.5 C79.92962397 118.77027506 71.46465703 122.26628548 63.1328125 126.10546875 C60.46797783 127.2231375 57.74851469 128.11123528 55 129 C57.31068836 135.18477863 59.63026154 141.33344666 62.4375 147.3125 C64.85958539 152.51465196 66.85395551 157.83058012 68.82861328 163.21337891 C70.46197315 167.643136 72.27439471 171.9389898 74.25390625 176.2265625 C75.18532806 178.440518 75.69302025 180.62090692 76 183 C69.25 181.25 69.25 181.25 67 179 C65.51739748 178.50674955 64.01298936 178.07771719 62.5 177.6875 C58.89667719 176.6623726 55.73839455 175.45401647 52.4375 173.6875 C47.22662122 170.9458015 41.81637386 169.07596707 36.23999023 167.23120117 C31.24101951 165.5489282 26.67694902 163.44357449 22 161 C21.84144531 161.66644531 21.68289063 162.33289063 21.51953125 163.01953125 C20.0053803 169.00084578 18.04185552 174.39764518 15.3984375 179.96484375 C13.75220979 183.53780165 12.26960769 187.15920449 10.8125 190.8125 C10.07966797 192.64748047 10.07966797 192.64748047 9.33203125 194.51953125 C8.13138486 197.65670408 7.03265163 200.80416344 6 204 C5.34 204 4.68 204 4 204 C3.690625 205.093125 3.38125 206.18625 3.0625 207.3125 C2.41662103 209.55407994 1.7376883 211.7869351 1 214 C0.34 214 -0.32 214 -1 214 C-1.50559908 212.56445975 -2.0042749 211.1264798 -2.5 209.6875 C-2.7784375 208.88699219 -3.056875 208.08648437 -3.34375 207.26171875 C-4 205 -4 205 -4 202 C-4.66 202 -5.32 202 -6 202 C-6.39832031 200.91460937 -6.79664063 199.82921875 -7.20703125 198.7109375 C-7.74200903 197.26555893 -8.27717531 195.82025012 -8.8125 194.375 C-9.07353516 193.66214844 -9.33457031 192.94929687 -9.60351562 192.21484375 C-11.17108602 187.9959506 -12.93698072 184.0076686 -15 180 C-17.78581811 173.76412957 -19.70234464 167.70455271 -21 161 C-21.79664063 161.34933594 -22.59328125 161.69867188 -23.4140625 162.05859375 C-24.47367187 162.51363281 -25.53328125 162.96867188 -26.625 163.4375 C-27.66914063 163.88996094 -28.71328125 164.34242188 -29.7890625 164.80859375 C-32.88685251 165.95801705 -35.73210054 166.57311223 -39 167 C-39 167.66 -39 168.32 -39 169 C-39.94101562 169.32613281 -40.88203125 169.65226563 -41.8515625 169.98828125 C-43.09679687 170.42527344 -44.34203125 170.86226562 -45.625 171.3125 C-47.46964844 171.95638672 -47.46964844 171.95638672 -49.3515625 172.61328125 C-52.98643455 173.91438409 -52.98643455 173.91438409 -56.2109375 175.66796875 C-59 177 -59 177 -63 177 C-63 177.66 -63 178.32 -63 179 C-64.7902061 179.67057887 -66.58221489 180.3363469 -68.375 181 C-69.37273437 181.37125 -70.37046875 181.7425 -71.3984375 182.125 C-74 183 -74 183 -76 183 C-73.80475517 176.02686937 -71.09662155 169.42492383 -68.125 162.75 C-63.24348889 151.65204474 -58.71902756 140.54855928 -55 129 C-55.53367187 128.82984375 -56.06734375 128.6596875 -56.6171875 128.484375 C-62.5171171 126.56536676 -68.26304469 124.35945761 -74 122 C-74 121.34 -74 120.68 -74 120 C-74.72525879 119.87093262 -75.45051758 119.74186523 -76.19775391 119.60888672 C-78.87997723 119.02607918 -81.27686181 118.24097462 -83.8359375 117.2578125 C-85.18558594 116.74154297 -85.18558594 116.74154297 -86.5625 116.21484375 C-87.490625 115.85519531 -88.41875 115.49554688 -89.375 115.125 C-90.75558594 114.59712891 -90.75558594 114.59712891 -92.1640625 114.05859375 C-97.15705664 112.13985743 -102.10043173 110.14609189 -107 108 C-107 107.34 -107 106.68 -107 106 C-105.06532058 105.16013916 -103.12714871 104.32831973 -101.1875 103.5 C-99.56908203 102.80390625 -99.56908203 102.80390625 -97.91796875 102.09375 C-95 101 -95 101 -92 101 C-92 100.34 -92 99.68 -92 99 C-88.535 98.505 -88.535 98.505 -85 98 C-85 97.34 -85 96.68 -85 96 C-81.12568575 94.53984033 -77.25042936 93.0821972 -73.375 91.625 C-72.28058594 91.2125 -71.18617188 90.8 -70.05859375 90.375 C-68.46337891 89.77558594 -68.46337891 89.77558594 -66.8359375 89.1640625 C-65.86188965 88.79748535 -64.8878418 88.4309082 -63.88427734 88.05322266 C-60.94013547 86.97813987 -57.97791545 85.97718886 -55 85 C-58.1472398 73.85506848 -62.21239919 63.2795962 -67.5625 53 C-75 38.51136364 -75 38.51136364 -75 32 C-68.38734388 33.0441036 -62.8586646 35.34419245 -56.8828125 38.2512207 C-51.41146254 40.88499179 -45.88405145 42.93160116 -40.12109375 44.859375 C-36.93675201 46.02311441 -34.02403501 47.47373738 -31 49 C-29.38807054 49.59892792 -27.76365314 50.16611037 -26.125 50.6875 C-24.95324219 51.06455078 -24.95324219 51.06455078 -23.7578125 51.44921875 C-23.17773438 51.63097656 -22.59765625 51.81273437 -22 52 C-20.94269137 49.38556413 -19.9121313 46.76568346 -18.921875 44.125 C-16.38286523 37.35430729 -13.56009355 30.80819837 -10.4765625 24.26953125 C-8.50657144 19.90740818 -6.84794351 15.44868268 -5.16796875 10.96875 C-3.67320343 7.16934652 -1.90928451 3.6064263 0 0 Z " fill="#FDDF02" transform="translate(399,110)"/>
<path d="M0 0 C0.33 0.66 0.66 1.32 1 2 C0.24316406 4.22729492 0.24316406 4.22729492 -0.984375 6.98046875 C-1.42523438 7.98013672 -1.86609375 8.97980469 -2.3203125 10.00976562 C-2.79210937 11.05841797 -3.26390625 12.10707031 -3.75 13.1875 C-4.66148014 15.24347992 -5.57293897 17.29946928 -6.484375 19.35546875 C-6.91814453 20.32661621 -7.35191406 21.29776367 -7.79882812 22.29833984 C-9.2308943 25.51932446 -10.62310293 28.75511258 -12 32 C-12.33 31.01 -12.66 30.02 -13 29 C-13.66 29 -14.32 29 -15 29 C-15.66 25.37 -16.32 21.74 -17 18 C-18.65 17.67 -20.3 17.34 -22 17 C-22 16.01 -22 15.02 -22 14 C-20.51879883 12.69726562 -20.51879883 12.69726562 -18.45703125 11.40625 C-17.71259766 10.93316406 -16.96816406 10.46007812 -16.20117188 9.97265625 C-15.41291016 9.48667969 -14.62464844 9.00070312 -13.8125 8.5 C-13.04357422 8.01402344 -12.27464844 7.52804687 -11.48242188 7.02734375 C-7.68494122 4.63476796 -3.86038175 2.28992585 0 0 Z " fill="#058A20" transform="translate(336,259)"/>
<path d="M0 0 C0.99 0.33 1.98 0.66 3 1 C3.73046875 3.06640625 3.73046875 3.06640625 4.1875 5.5625 C4.34605469 6.38878906 4.50460937 7.21507812 4.66796875 8.06640625 C4.77753906 8.70449219 4.88710938 9.34257812 5 10 C6.65 9.67 8.3 9.34 10 9 C9.67 9.99 9.34 10.98 9 12 C9 12.99 9 13.98 9 15 C7.68 15 6.36 15 5 15 C5 15.66 5 16.32 5 17 C3.2097939 17.67057887 1.41778511 18.3363469 -0.375 19 C-1.37273437 19.37125 -2.37046875 19.7425 -3.3984375 20.125 C-6 21 -6 21 -8 21 C-5.72564796 13.81783567 -2.96415819 6.9241798 0 0 Z " fill="#E0DB07" transform="translate(331,272)"/>
<path d="M0 0 C1 4 1 4 0 7 C1.32 7 2.64 7 4 7 C4.99 7 5.98 7 7 7 C7 7.66 7 8.32 7 9 C10.01327566 7.49336217 10.61056618 4.96833589 12 2 C13.98 2.66 15.96 3.32 18 4 C18 3.34 18 2.68 18 2 C18.66 2 19.32 2 20 2 C18.50525526 6.08385616 16.2488225 7.28832909 12.5 9.3125 C7.39404825 12.15460808 2.66428099 15.25202613 -2.0390625 18.71484375 C-4 20 -4 20 -6 20 C-6.33 20.99 -6.66 21.98 -7 23 C-8.37095624 19.30962722 -7.60010967 17.29116165 -6.0625 13.75 C-5.68222656 12.85796875 -5.30195313 11.9659375 -4.91015625 11.046875 C-4.60980469 10.37140625 -4.30945313 9.6959375 -4 9 C-3.34 9 -2.68 9 -2 9 C-1.34 6.03 -0.68 3.06 0 0 Z " fill="#F50B15" transform="translate(470,153)"/>
<path d="M0 0 C1.12377697 3.30435084 0.89554742 5.0506862 -0.4375 8.25 C-0.72496094 8.95640625 -1.01242187 9.6628125 -1.30859375 10.390625 C-1.53675781 10.92171875 -1.76492188 11.4528125 -2 12 C-2.66 12 -3.32 12 -4 12 C-4.309375 13.093125 -4.61875 14.18625 -4.9375 15.3125 C-5.58337897 17.55407994 -6.2623117 19.7869351 -7 22 C-7.66 22 -8.32 22 -9 22 C-9.50559908 20.56445975 -10.0042749 19.1264798 -10.5 17.6875 C-10.91765625 16.48673828 -10.91765625 16.48673828 -11.34375 15.26171875 C-12 13 -12 13 -12 10 C-12.66 10 -13.32 10 -14 10 C-14.66 7.36 -15.32 4.72 -16 2 C-15.34 2 -14.68 2 -14 2 C-13.34 3.32 -12.68 4.64 -12 6 C-10.35 4.68 -8.7 3.36 -7 2 C-7 2.66 -7 3.32 -7 4 C-4.56282742 3.72965366 -4.56282742 3.72965366 -2 3 C-1.34 2.01 -0.68 1.02 0 0 Z " fill="#FBDE03" transform="translate(407,302)"/>
<path d="M0 0 C1.65 0 3.3 0 5 0 C5 0.66 5 1.32 5 2 C7.64 2 10.28 2 13 2 C13 1.34 13 0.68 13 0 C14.32 0.33 15.64 0.66 17 1 C10.77341722 3.87999565 4.45294827 6.38267002 -1.984375 8.75390625 C-4.85902802 9.94174863 -7.34370309 11.39786288 -10 13 C-10.66 13 -11.32 13 -12 13 C-11.01 15.97 -10.02 18.94 -9 22 C-9.99 22 -10.98 22 -12 22 C-12 20.35 -12 18.7 -12 17 C-12.66 17 -13.32 17 -14 17 C-14 18.65 -14 20.3 -14 22 C-16 21 -16 21 -18 19 C-18.36933645 16.24627091 -18.18336678 13.79634339 -18 11 C-16.125 9.9375 -16.125 9.9375 -14 9 C-13.34 9.33 -12.68 9.66 -12 10 C-12 9.01 -12 8.02 -12 7 C-10.02 7.66 -8.04 8.32 -6 9 C-6 8.34 -6 7.68 -6 7 C-2.86501708 5.14223235 -0.62528568 4.79859524 3 5 C2.505 4.54625 2.01 4.0925 1.5 3.625 C0 2 0 2 0 0 Z " fill="#F2E107" transform="translate(466,226)"/>
<path d="M0 0 C0.66 0 1.32 0 2 0 C2.33 5.61 2.66 11.22 3 17 C3.66 16.67 4.32 16.34 5 16 C5 18.66666667 5 21.33333333 5 24 C5.99 24.66 6.98 25.32 8 26 C6.35 26 4.7 26 3 26 C2.67386719 25.20335937 2.34773438 24.40671875 2.01171875 23.5859375 C-0.69642096 16.96424066 -0.69642096 16.96424066 -3.875 10.5625 C-5.19593782 7.55369718 -4.99743537 6.08298205 -4 3 C-2.68 3 -1.36 3 0 3 C0 2.01 0 1.02 0 0 Z " fill="#F81012" transform="translate(418,136)"/>
<path d="M0 0 C7.60837466 2.07042054 14.7728592 4.85830477 22 8 C22 8.66 22 9.32 22 10 C15.0758202 12.96415819 8.18216433 15.72564796 1 18 C1 17.34 1 16.68 1 16 C1.99 16 2.98 16 4 16 C4 15.34 4 14.68 4 14 C5.65 14 7.3 14 9 14 C9 13.34 9 12.68 9 12 C9.99 11.67 10.98 11.34 12 11 C12.33 10.01 12.66 9.02 13 8 C12.34 7.67 11.68 7.34 11 7 C11.33 6.34 11.66 5.68 12 5 C11.4225 5.350625 10.845 5.70125 10.25 6.0625 C7.64198224 7.14917407 6.60582371 6.93065133 4 6 C4 5.34 4 4.68 4 4 C2.70766393 2.62689293 1.37562854 1.28965176 0 0 Z " fill="#E5E109" transform="translate(484,208)"/>
<path d="M0 0 C0 0.66 0 1.32 0 2 C-0.66 2 -1.32 2 -2 2 C-2.66 4.97 -3.32 7.94 -4 11 C-4.99 11 -5.98 11 -7 11 C-6.67 10.01 -6.34 9.02 -6 8 C-7.98 8 -9.96 8 -12 8 C-12 8.66 -12 9.32 -12 10 C-11.01 10 -10.02 10 -9 10 C-9.33 10.66 -9.66 11.32 -10 12 C-13.33333333 10.66666667 -16.66666667 9.33333333 -20 8 C-19.44441406 7.72285156 -18.88882812 7.44570312 -18.31640625 7.16015625 C-16.7179789 6.35959483 -15.12175099 5.55463202 -13.52734375 4.74609375 C-12.67269531 4.31425781 -11.81804687 3.88242188 -10.9375 3.4375 C-10.08027344 3.00308594 -9.22304688 2.56867188 -8.33984375 2.12109375 C-5.38813133 0.70683421 -3.29553447 0 0 0 Z " fill="#FAD708" transform="translate(476,141)"/>
<path d="M0 0 C2.33088789 2.87854637 3.83224797 5.61984828 5.1875 9.0625 C5.53167969 9.91972656 5.87585938 10.77695312 6.23046875 11.66015625 C7 14 7 14 7 17 C0.25 15.25 0.25 15.25 -2 13 C-3.98356483 12.28591666 -5.98315437 11.61382258 -8 11 C-6.68 10.67 -5.36 10.34 -4 10 C-4 9.34 -4 8.68 -4 8 C-4.66 8 -5.32 8 -6 8 C-6 7.34 -6 6.68 -6 6 C-5.34 6 -4.68 6 -4 6 C-3.67 5.34 -3.34 4.68 -3 4 C-3 5.65 -3 7.3 -3 9 C-1.35 8.67 0.3 8.34 2 8 C1.67 7.34 1.34 6.68 1 6 C0.34 6 -0.32 6 -1 6 C-0.67 4.02 -0.34 2.04 0 0 Z " fill="#E6DD08" transform="translate(468,276)"/>
<path d="M0 0 C0.66 0.33 1.32 0.66 2 1 C0.91790362 4.13807951 0.05268214 4.96907788 -2.875 6.6875 C-6 8 -6 8 -8.25 8.4375 C-10.22388282 8.86100027 -10.22388282 8.86100027 -11.25 11.0625 C-11.4975 11.701875 -11.745 12.34125 -12 13 C-12.99 13 -13.98 13 -15 13 C-15 13.66 -15 14.32 -15 15 C-16.65 15.33 -18.3 15.66 -20 16 C-20 16.99 -20 17.98 -20 19 C-21.65 18.67 -23.3 18.34 -25 18 C-24.67 17.34 -24.34 16.68 -24 16 C-23.34 16 -22.68 16 -22 16 C-22 15.34 -22 14.68 -22 14 C-20.19580078 12.703125 -20.19580078 12.703125 -17.6953125 11.25 C-16.35533203 10.46109375 -16.35533203 10.46109375 -14.98828125 9.65625 C-14.04339844 9.1096875 -13.09851563 8.563125 -12.125 8 C-10.27192669 6.91925298 -8.42029341 5.83603196 -6.5703125 4.75 C-5.74289551 4.27046875 -4.91547852 3.7909375 -4.06298828 3.296875 C-1.88807893 2.03628765 -1.88807893 2.03628765 0 0 Z M-23 19 C-22.34 19.66 -21.68 20.32 -21 21 C-21.66 21 -22.32 21 -23 21 C-23 20.34 -23 19.68 -23 19 Z " fill="#238120" transform="translate(676,32)"/>
<path d="M0 0 C1 2 1 2 0.37915039 3.97119141 C0.03875732 4.75671387 -0.30163574 5.54223633 -0.65234375 6.3515625 C-1.01650391 7.20234375 -1.38066406 8.053125 -1.75585938 8.9296875 C-2.14580078 9.81914062 -2.53574219 10.70859375 -2.9375 11.625 C-3.32357422 12.5221875 -3.70964844 13.419375 -4.10742188 14.34375 C-5.06470725 16.56559754 -6.02914277 18.78405708 -7 21 C-7.66 20.67 -8.32 20.34 -9 20 C-9 19.34 -9 18.68 -9 18 C-8.34 18 -7.68 18 -7 18 C-7.33 16.68 -7.66 15.36 -8 14 C-7.34 14 -6.68 14 -6 14 C-7.24976756 10.34683329 -7.67098753 9.21934164 -11 7 C-7.37 4.69 -3.74 2.38 0 0 Z " fill="#16891F" transform="translate(336,259)"/>
<path d="M0 0 C0.928125 0.20625 1.85625 0.4125 2.8125 0.625 C2.8125 1.285 2.8125 1.945 2.8125 2.625 C1.4925 2.625 0.1725 2.625 -1.1875 2.625 C-1.620625 3.5221875 -1.620625 3.5221875 -2.0625 4.4375 C-3.1875 6.625 -3.1875 6.625 -5.1875 9.625 C-5.8475 9.295 -6.5075 8.965 -7.1875 8.625 C-7.5175 8.955 -7.8475 9.285 -8.1875 9.625 C-9.86292976 9.33895102 -11.53135343 9.00718767 -13.1875 8.625 C-13.1875 9.285 -13.1875 9.945 -13.1875 10.625 C-14.5075 9.965 -15.8275 9.305 -17.1875 8.625 C-16.42824219 8.14289063 -15.66898437 7.66078125 -14.88671875 7.1640625 C-13.89285156 6.53242188 -12.89898437 5.90078125 -11.875 5.25 C-10.88886719 4.62351563 -9.90273438 3.99703125 -8.88671875 3.3515625 C-3.08048561 -0.36241007 -3.08048561 -0.36241007 0 0 Z " fill="#19831F" transform="translate(481.1875,164.375)"/>
<path d="M0 0 C0.66 0.33 1.32 0.66 2 1 C1.67 1.33 1.34 1.66 1 2 C1.66 2.33 2.32 2.66 3 3 C3 2.34 3 1.68 3 1 C5.31 1.33 7.62 1.66 10 2 C8 5 8 5 5.875 5.6875 C5.25625 5.790625 4.6375 5.89375 4 6 C4.825 6.45375 5.65 6.9075 6.5 7.375 C7.325 7.91125 8.15 8.4475 9 9 C9 9.66 9 10.32 9 11 C3.53262809 9.25192871 -1.75824848 7.34205919 -7 5 C-7 4.34 -7 3.68 -7 3 C-4.69631264 1.93347808 -2.35981813 0.93578995 0 0 Z " fill="#FAD705" transform="translate(299,213)"/>
<path d="M0 0 C1.00000429 4.00001715 0.80688405 6.05523353 0 10 C-0.66 10 -1.32 10 -2 10 C-2 10.99 -2 11.98 -2 13 C-1.01 13 -0.02 13 1 13 C1.33 13.99 1.66 14.98 2 16 C-3.75 20 -3.75 20 -6 20 C-6.33 20.99 -6.66 21.98 -7 23 C-8.37095624 19.30962722 -7.60010967 17.29116165 -6.0625 13.75 C-5.68222656 12.85796875 -5.30195313 11.9659375 -4.91015625 11.046875 C-4.60980469 10.37140625 -4.30945313 9.6959375 -4 9 C-3.34 9 -2.68 9 -2 9 C-1.34 6.03 -0.68 3.06 0 0 Z " fill="#EC220E" transform="translate(470,153)"/>
<path d="M0 0 C0 0.66 0 1.32 0 2 C-0.99 2.33 -1.98 2.66 -3 3 C-1.02 3.99 0.96 4.98 3 6 C3 5.01 3 4.02 3 3 C3.99 3 4.98 3 6 3 C5.34 4.65 4.68 6.3 4 8 C-3.20773928 6.41429736 -9.54031293 4.60251779 -16 1 C-16 0.67 -16 0.34 -16 0 C-9.25 0.875 -9.25 0.875 -7 2 C-7 1.34 -7 0.68 -7 0 C-4.3333581 -1.33332095 -2.83319697 -0.67102033 0 0 Z " fill="#F70D0C" transform="translate(373,154)"/>
<path d="M0 0 C0 0.66 0 1.32 0 2 C-0.99 2.33 -1.98 2.66 -3 3 C-2.67 3.66 -2.34 4.32 -2 5 C-14.7568508 8.98651588 -14.7568508 8.98651588 -19.23828125 7.015625 C-19.81964844 6.68046875 -20.40101563 6.3453125 -21 6 C-18.44114774 4.98968935 -15.87859624 3.99159855 -13.3125 3 C-12.59126953 2.71382812 -11.87003906 2.42765625 -11.12695312 2.1328125 C-7.28959679 0.6609498 -4.18433411 -0.39614998 0 0 Z " fill="#FBD906" transform="translate(335,200)"/>
<path d="M0 0 C0.99 0.33 1.98 0.66 3 1 C3.33 3.31 3.66 5.62 4 8 C4.66 8 5.32 8 6 8 C8.4294516 11.6441774 8.16179575 13.71241272 8 18 C8.66 18.33 9.32 18.66 10 19 C9.01 19 8.02 19 7 19 C6.57847656 17.92878906 6.15695312 16.85757813 5.72265625 15.75390625 C5.16940681 14.35671698 4.61601398 12.95958449 4.0625 11.5625 C3.78470703 10.85544922 3.50691406 10.14839844 3.22070312 9.41992188 C2.03777966 5.95326119 2.03777966 5.95326119 0 3 C-1.98 7.455 -1.98 7.455 -4 12 C-5.09658936 8.71023192 -4.79953138 7.28696233 -4 4 C-3.34 4 -2.68 4 -2 4 C-2 3.01 -2 2.02 -2 1 C-1.34 0.67 -0.68 0.34 0 0 Z " fill="#F42C0B" transform="translate(399,108)"/>
<path d="M0 0 C1.98 0 3.96 0 6 0 C5.69078116 1.45903258 5.37751201 2.91720722 5.0625 4.375 C4.88847656 5.18710938 4.71445312 5.99921875 4.53515625 6.8359375 C4 9 4 9 3 11 C5.31 11.66 7.62 12.32 10 13 C10 13.99 10 14.98 10 16 C8.02 15.34 6.04 14.68 4 14 C4 13.34 4 12.68 4 12 C2.68 11.67 1.36 11.34 0 11 C0.99 8.36 1.98 5.72 3 3 C2.34 3 1.68 3 1 3 C0.67 4.65 0.34 6.3 0 8 C-0.99 8 -1.98 8 -3 8 C-2.01 5.36 -1.02 2.72 0 0 Z " fill="#DDDC0C" transform="translate(451,184)"/>
<path d="M0 0 C1.21236328 0.04060547 1.21236328 0.04060547 2.44921875 0.08203125 C3.06410156 0.11683594 3.67898438 0.15164062 4.3125 0.1875 C4.6425 2.8275 4.9725 5.4675 5.3125 8.1875 C4.6525 8.1875 3.9925 8.1875 3.3125 8.1875 C2.9825 10.1675 2.6525 12.1475 2.3125 14.1875 C1.6525 14.1875 0.9925 14.1875 0.3125 14.1875 C0.9725 11.8775 1.6325 9.5675 2.3125 7.1875 C2.9725 7.1875 3.6325 7.1875 4.3125 7.1875 C4.3125 6.5275 4.3125 5.8675 4.3125 5.1875 C1.6725 5.8475 -0.9675 6.5075 -3.6875 7.1875 C-2.6875 5.1875 -2.6875 5.1875 -1.6875 4.1875 C-3.6675 4.5175 -5.6475 4.8475 -7.6875 5.1875 C-7.6875 3.1875 -7.6875 3.1875 -6.48046875 1.57421875 C-4.17167958 -0.21144608 -2.88126329 -0.12527232 0 0 Z " fill="#F5190B" transform="translate(471.6875,135.8125)"/>
<path d="M0 0 C0.66 0.33 1.32 0.66 2 1 C2 1.66 2 2.32 2 3 C1.34 3 0.68 3 0 3 C0 3.66 0 4.32 0 5 C0.66 5.33 1.32 5.66 2 6 C1.01 6.66 0.02 7.32 -1 8 C-1.33 8.99 -1.66 9.98 -2 11 C-2.99 11 -3.98 11 -5 11 C-5 10.34 -5 9.68 -5 9 C-6.65 8.67 -8.3 8.34 -10 8 C-6.97727468 4.74475735 -3.74281699 2.38179263 0 0 Z " fill="#12851F" transform="translate(694,20)"/>
<path d="M0 0 C-0.33 1.32 -0.66 2.64 -1 4 C0.32 4.33 1.64 4.66 3 5 C0.11122942 5.61276952 -2.68163621 6.07051409 -5.625 6.375 C-8.96905665 6.99426975 -10.02953947 7.33408282 -12 10 C-11.67 10.66 -11.34 11.32 -11 12 C-12.32 12.33 -13.64 12.66 -15 13 C-15 12.34 -15 11.68 -15 11 C-15.66 10.67 -16.32 10.34 -17 10 C-14.73518493 8.32457538 -12.46385674 6.65960984 -10.1875 5 C-9.54490234 4.52304687 -8.90230469 4.04609375 -8.24023438 3.5546875 C-7.61826172 3.10351562 -6.99628906 2.65234375 -6.35546875 2.1875 C-5.78465576 1.76855469 -5.21384277 1.34960938 -4.62573242 0.91796875 C-3 0 -3 0 0 0 Z " fill="#1D8421" transform="translate(219,338)"/>
<path d="M0 0 C0.66 0.33 1.32 0.66 2 1 C2 2.98 2 4.96 2 7 C2.66 7 3.32 7 4 7 C4.33 8.65 4.66 10.3 5 12 C3.3125 13.1875 3.3125 13.1875 1 14 C-0.68496298 13.03114628 -2.35178756 12.03013277 -4 11 C-6.25328412 11.20643199 -6.25328412 11.20643199 -8 12 C-6.75 10.4375 -6.75 10.4375 -5 9 C-2.67511119 9.2818047 -1.09107165 9.95446418 1 11 C0.01 8.03 -0.98 5.06 -2 2 C-1.34 2 -0.68 2 0 2 C0 1.34 0 0.68 0 0 Z " fill="#138A1C" transform="translate(474,282)"/>
<path d="M0 0 C-2.27323437 2.5938187 -4.23402458 3.68311469 -7.5 4.75 C-8.2734375 5.01296875 -9.046875 5.2759375 -9.84375 5.546875 C-12 6 -12 6 -15 5 C-15 3.68 -15 2.36 -15 1 C-9.4584498 -0.96263236 -5.79141983 -1.01603857 0 0 Z " fill="#F5150F" transform="translate(463,145)"/>
<path d="M0 0 C3.63 0 7.26 0 11 0 C7.72291137 3.67033927 4.28477792 5.69281189 0 8 C-1.08174162 4.63458162 -0.92538169 3.70152678 0 0 Z " fill="#F60915" transform="translate(713,0)"/>
<path d="M0 0 C1.4589426 0.47730838 2.91713496 0.95691042 4.375 1.4375 C5.18710937 1.70433594 5.99921875 1.97117188 6.8359375 2.24609375 C9 3 9 3 11 4 C10.25 10.75 10.25 10.75 8 13 C7.67386719 12.28972656 7.34773438 11.57945312 7.01171875 10.84765625 C6.57472656 9.92855469 6.13773437 9.00945312 5.6875 8.0625 C5.25824219 7.14597656 4.82898438 6.22945312 4.38671875 5.28515625 C3.14921339 2.69030588 3.14921339 2.69030588 0 2 C0 1.34 0 0.68 0 0 Z " fill="#F51110" transform="translate(333,235)"/>
<path d="M0 0 C0.99 0.33 1.98 0.66 3 1 C3.33 1.99 3.66 2.98 4 4 C2.04260958 5.3139058 0.08405875 6.62608302 -1.875 7.9375 C-2.96554688 8.66839844 -4.05609375 9.39929688 -5.1796875 10.15234375 C-8 12 -8 12 -10 13 C-9.42655063 10.13275314 -9.1385485 9.1385485 -7 7 C-6.01 7 -5.02 7 -4 7 C-3.8453125 6.1028125 -3.8453125 6.1028125 -3.6875 5.1875 C-2.91123545 2.71756736 -1.92911079 1.67748765 0 0 Z " fill="#EC0D12" transform="translate(124,394)"/>
<path d="M0 0 C-0.33 0.99 -0.66 1.98 -1 3 C-2.423125 3.6496875 -2.423125 3.6496875 -3.875 4.3125 C-7.62988539 6.34013811 -8.44430896 8.1107724 -10 12 C-10.66 12 -11.32 12 -12 12 C-13.625 10 -13.625 10 -15 8 C-13.258859 6.65511867 -11.50673385 5.32444855 -9.75 4 C-8.77546875 3.2575 -7.8009375 2.515 -6.796875 1.75 C-4 0 -4 0 0 0 Z " fill="#1D8420" transform="translate(289,292)"/>
<path d="M0 0 C2.97 0.495 2.97 0.495 6 1 C6 1.66 6 2.32 6 3 C5.34 3 4.68 3 4 3 C4 3.66 4 4.32 4 5 C2.03125 6.5078125 2.03125 6.5078125 -0.5 8.125 C-1.3353125 8.66382812 -2.170625 9.20265625 -3.03125 9.7578125 C-3.6809375 10.16773437 -4.330625 10.57765625 -5 11 C-6.32 10.34 -7.64 9.68 -9 9 C-8.34 8.34 -7.68 7.68 -7 7 C-6.01 7.33 -5.02 7.66 -4 8 C-4 7.34 -4 6.68 -4 6 C-3.34 5.67 -2.68 5.34 -2 5 C-1.27840576 3.35636866 -0.60648579 1.68949614 0 0 Z " fill="#EE0D14" transform="translate(626,59)"/>
<path d="M0 0 C0.598125 0.185625 1.19625 0.37125 1.8125 0.5625 C4.16408762 1.22093687 4.16408762 1.22093687 7 0 C7 0.99 7 1.98 7 3 C6.34 3 5.68 3 5 3 C5 3.66 5 4.32 5 5 C3.25 6.2890625 3.25 6.2890625 1 7.625 C-0.11375 8.29402344 -0.11375 8.29402344 -1.25 8.9765625 C-1.8275 9.31429687 -2.405 9.65203125 -3 10 C-3.99 9.34 -4.98 8.68 -6 8 C-4.7934375 7.13375 -4.7934375 7.13375 -3.5625 6.25 C-1.02133261 4.01873107 -0.34879632 3.25543229 0 0 Z " fill="#ED0D11" transform="translate(673,27)"/>
<path d="M0 0 C0.66 0.33 1.32 0.66 2 1 C0.66492314 5.00523058 -1.87337777 6.15889419 -5.3125 8.25 C-5.89451172 8.62640625 -6.47652344 9.0028125 -7.07617188 9.390625 C-11.46947998 12.09726102 -11.46947998 12.09726102 -14.19995117 11.59667969 C-14.79396729 11.39977539 -15.3879834 11.20287109 -16 11 C-14.92878906 10.28972656 -13.85757813 9.57945312 -12.75390625 8.84765625 C-11.35673055 7.91933146 -9.95959733 6.99094274 -8.5625 6.0625 C-7.85544922 5.59392578 -7.14839844 5.12535156 -6.41992188 4.64257812 C-5.74638672 4.19462891 -5.07285156 3.74667969 -4.37890625 3.28515625 C-3.7557251 2.87144775 -3.13254395 2.45773926 -2.49047852 2.03149414 C-1.01980114 1.0794855 -1.01980114 1.0794855 0 0 Z " fill="#1F8622" transform="translate(108,410)"/>
<path d="M0 0 C2.34914492 2.34914492 2.73140357 3.95679446 3.625 7.125 C3.88539063 8.03507813 4.14578125 8.94515625 4.4140625 9.8828125 C4.70410156 10.93082031 4.70410156 10.93082031 5 12 C4.34 12 3.68 12 3 12 C2.67 11.34 2.34 10.68 2 10 C1.67 11.32 1.34 12.64 1 14 C1.66 14 2.32 14 3 14 C3 14.66 3 15.32 3 16 C2.01 15.67 1.02 15.34 0 15 C-0.33 12.69 -0.66 10.38 -1 8 C-1.99 7.67 -2.98 7.34 -4 7 C-3.67 5.68 -3.34 4.36 -3 3 C-3 3.99 -3 4.98 -3 6 C-1.68 6 -0.36 6 1 6 C0.67 4.02 0.34 2.04 0 0 Z " fill="#F61C09" transform="translate(324,144)"/>
<path d="M0 0 C0 0.66 0 1.32 0 2 C-0.66 2 -1.32 2 -2 2 C-2.33 3.32 -2.66 4.64 -3 6 C-4.45635371 6.22174933 -5.91522956 6.42698698 -7.375 6.625 C-8.18710937 6.74101562 -8.99921875 6.85703125 -9.8359375 6.9765625 C-10.55007813 6.98429688 -11.26421875 6.99203125 -12 7 C-12.66 6.34 -13.32 5.68 -14 5 C-12.730447 4.35165346 -11.45930294 3.70642185 -10.1875 3.0625 C-9.47980469 2.70285156 -8.77210938 2.34320313 -8.04296875 1.97265625 C-5.21118833 0.62444722 -3.15756231 0 0 0 Z " fill="#F7C70B" transform="translate(476,141)"/>
<path d="M0 0 C0.66 0.33 1.32 0.66 2 1 C-3 6 -3 6 -4.75 7.6875 C-6.12192353 8.99967873 -6.12192353 8.99967873 -7 11 C-9.64 11 -12.28 11 -15 11 C-10.22276042 7.01896702 -5.11066313 3.53280791 0 0 Z " fill="#208521" transform="translate(90,422)"/>
<path d="M0 0 C2.05078125 0.03255208 4.1015625 0.06510417 6.15234375 0.09765625 C6.02734375 1.84765625 6.02734375 1.84765625 5.15234375 4.09765625 C-0.06987847 8.09765625 -0.06987847 8.09765625 -2.84765625 8.09765625 C-2.89007348 5.7647085 -2.88858562 3.43063058 -2.84765625 1.09765625 C-1.84765625 0.09765625 -1.84765625 0.09765625 0 0 Z " fill="#EB0F14" transform="translate(330.84765625,255.90234375)"/>
<path d="M0 0 C5.45479185 0.56820748 9.91059256 1.94637945 15 4 C14.34 4.66 13.68 5.32 13 6 C11.68 6 10.36 6 9 6 C9 6.66 9 7.32 9 8 C8.01 8 7.02 8 6 8 C6 7.34 6 6.68 6 6 C5.01 6 4.02 6 3 6 C3 5.34 3 4.68 3 4 C3.99 4 4.98 4 6 4 C6 3.34 6 2.68 6 2 C3.03 1.505 3.03 1.505 0 1 C0 0.67 0 0.34 0 0 Z " fill="#F71F0F" transform="translate(305,224)"/>
<path d="M0 0 C0.66 0 1.32 0 2 0 C2.433125 1.11375 2.433125 1.11375 2.875 2.25 C3.91112914 4.9276722 3.91112914 4.9276722 5.125 7.0625 C6 9 6 9 6 13 C6.66 11.68 7.32 10.36 8 9 C9 10 9 10 9.09765625 12.28515625 C9.08605469 13.20167969 9.07445312 14.11820312 9.0625 15.0625 C9.05347656 15.98160156 9.04445313 16.90070313 9.03515625 17.84765625 C9.02355469 18.55792969 9.01195312 19.26820313 9 20 C8.34 20 7.68 20 7 20 C6.49440092 18.56445975 5.9957251 17.1264798 5.5 15.6875 C5.2215625 14.88699219 4.943125 14.08648437 4.65625 13.26171875 C4 11 4 11 4 8 C3.34 8 2.68 8 2 8 C1.34 5.36 0.68 2.72 0 0 Z " fill="#D8DC0D" transform="translate(391,304)"/>
<path d="M0 0 C1.12377697 3.30435084 0.89554742 5.0506862 -0.4375 8.25 C-0.72496094 8.95640625 -1.01242187 9.6628125 -1.30859375 10.390625 C-1.53675781 10.92171875 -1.76492188 11.4528125 -2 12 C-2.66 12 -3.32 12 -4 12 C-4.33 13.98 -4.66 15.96 -5 18 C-5.33 18 -5.66 18 -6 18 C-6.1232977 12.69819903 -5.32303806 8.10314679 -4 3 C-3.34 3 -2.68 3 -2 3 C-1.34 2.01 -0.68 1.02 0 0 Z " fill="#DCDD07" transform="translate(407,302)"/>
<path d="M0 0 C0.33 1.32 0.66 2.64 1 4 C2.98 3.67 4.96 3.34 7 3 C4.4345406 5.5654594 2.52313332 5.54046087 -1 6 C-1 5.34 -1 4.68 -1 4 C-3.64 4 -6.28 4 -9 4 C-8.67 3.01 -8.34 2.02 -8 1 C-5.29120665 -0.35439668 -2.99066732 -0.06501451 0 0 Z " fill="#F8130E" transform="translate(433,152)"/>
<path d="M0 0 C0 0.99 0 1.98 0 3 C-2.265625 4.7890625 -2.265625 4.7890625 -5.25 6.625 C-6.22453125 7.23601562 -7.1990625 7.84703125 -8.203125 8.4765625 C-10.56034177 9.76052136 -12.38359009 10.53901349 -15 11 C-13.49471893 6.95007711 -11.11269686 5.4746607 -7.5 3.25 C-6.03046875 2.32960938 -6.03046875 2.32960938 -4.53125 1.390625 C-2 0 -2 0 0 0 Z " fill="#248421" transform="translate(202,349)"/>
<path d="M0 0 C-0.33 0.66 -0.66 1.32 -1 2 C-1.99 2.33 -2.98 2.66 -4 3 C-1.69 3.66 0.62 4.32 3 5 C0 7 0 7 -2.41015625 6.609375 C-3.28542969 6.32578125 -4.16070312 6.0421875 -5.0625 5.75 C-5.94035156 5.47671875 -6.81820313 5.2034375 -7.72265625 4.921875 C-10 4 -10 4 -12 2 C-7.82262526 0.40861915 -4.46839215 -0.21278058 0 0 Z " fill="#DFDB06" transform="translate(444,273)"/>
<path d="M0 0 C0.66 0.33 1.32 0.66 2 1 C1.34 3.97 0.68 6.94 0 10 C-0.66 10 -1.32 10 -2 10 C-2.33 8.68 -2.66 7.36 -3 6 C-5.31 6.66 -7.62 7.32 -10 8 C-6.97727468 4.74475735 -3.74281699 2.38179263 0 0 Z " fill="#1E8320" transform="translate(646,52)"/>
<path d="M0 0 C1.98 0.66 3.96 1.32 6 2 C6 1.34 6 0.68 6 0 C6.66 0 7.32 0 8 0 C6.6015209 3.4087928 5.14993067 4.87393835 2 6.75 C0.948125 7.39195312 0.948125 7.39195312 -0.125 8.046875 C-2 9 -2 9 -4 9 C-2.94124926 5.59687262 -1.99097846 2.98646769 0 0 Z " fill="#E41212" transform="translate(482,155)"/>
<path d="M0 0 C2.39007705 0.90525965 4.67523623 1.93060866 7 3 C7 3.33 7 3.66 7 4 C2.97007218 3.44687265 -1.02022924 2.8441938 -5 2 C-5.33 2.99 -5.66 3.98 -6 5 C-6.66 5 -7.32 5 -8 5 C-8 3.35 -8 1.7 -8 0 C-5.0451585 -1.47742075 -3.19572794 -0.72356104 0 0 Z " fill="#239117" transform="translate(448,281)"/>
<path d="M0 0 C0.99 0.33 1.98 0.66 3 1 C3 1.66 3 2.32 3 3 C3.99 3 4.98 3 6 3 C5.67 4.32 5.34 5.64 5 7 C4.34 6.67 3.68 6.34 3 6 C2.34 7.65 1.68 9.3 1 11 C0.01 11 -0.98 11 -2 11 C-1.34 8.03 -0.68 5.06 0 2 C-0.66 1.67 -1.32 1.34 -2 1 C-1.34 0.67 -0.68 0.34 0 0 Z " fill="#F8CD09" transform="translate(344,237)"/>
<path d="M0 0 C0.99 0.66 1.98 1.32 3 2 C3.66 1.34 4.32 0.68 5 0 C5 2.97 5 5.94 5 9 C3.68 8.67 2.36 8.34 1 8 C1.33 7.34 1.66 6.68 2 6 C1.34 6 0.68 6 0 6 C0 6.66 0 7.32 0 8 C-0.66 7.67 -1.32 7.34 -2 7 C-1.34 4.69 -0.68 2.38 0 0 Z " fill="#04871B" transform="translate(457,184)"/>
<path d="M0 0 C3.68754757 0.49831724 5.60490662 1.10067643 8 4 C6.02 4.33 4.04 4.66 2 5 C1.67 5.99 1.34 6.98 1 8 C0.67 7.34 0.34 6.68 0 6 C-0.99 6.495 -0.99 6.495 -2 7 C-1.34 4.69 -0.68 2.38 0 0 Z " fill="#259117" transform="translate(421,271)"/>
<path d="M0 0 C0 0.99 0 1.98 0 3 C-1.32 3 -2.64 3 -4 3 C-3.34 4.32 -2.68 5.64 -2 7 C-2.99 7 -3.98 7 -5 7 C-5 6.34 -5 5.68 -5 5 C-5.99 5.33 -6.98 5.66 -8 6 C-8.66 5.34 -9.32 4.68 -10 4 C-9.01 3.67 -8.02 3.34 -7 3 C-7 2.34 -7 1.68 -7 1 C-3.375 -1.125 -3.375 -1.125 0 0 Z " fill="#247F20" transform="translate(637,61)"/>
<path d="M0 0 C0.55171875 0.23589844 1.1034375 0.47179687 1.671875 0.71484375 C1.671875 1.37484375 1.671875 2.03484375 1.671875 2.71484375 C0.62 3.14796875 -0.431875 3.58109375 -1.515625 4.02734375 C-4.62273482 5.35354916 -7.47330695 6.89814135 -10.328125 8.71484375 C-10.988125 8.05484375 -11.648125 7.39484375 -12.328125 6.71484375 C-10.75638425 5.51204214 -9.17024942 4.328031 -7.578125 3.15234375 C-6.69640625 2.49105469 -5.8146875 1.82976562 -4.90625 1.1484375 C-2.328125 -0.28515625 -2.328125 -0.28515625 0 0 Z " fill="#268121" transform="translate(179.328125,364.28515625)"/>
<path d="M0 0 C-4.23470715 4.68046579 -8.96158898 6.46079719 -15 8 C-11.29230481 3.82884292 -5.73708737 -1.91236246 0 0 Z " fill="#397820" transform="translate(275,302)"/>
<path d="M0 0 C-0.99 0.495 -0.99 0.495 -2 1 C-2 1.99 -2 2.98 -2 4 C-3.175625 3.690625 -3.175625 3.690625 -4.375 3.375 C-5.674375 3.189375 -5.674375 3.189375 -7 3 C-7.66 3.66 -8.32 4.32 -9 5 C-12.625 5.125 -12.625 5.125 -16 5 C-15.4225 4.71511719 -14.845 4.43023437 -14.25 4.13671875 C-12.82035827 3.41445183 -11.40184125 2.6693771 -10 1.89453125 C-9.34 1.53746094 -8.68 1.18039062 -8 0.8125 C-7.01 0.26529297 -7.01 0.26529297 -6 -0.29296875 C-3.59324463 -1.14379438 -2.37238501 -0.83139386 0 0 Z " fill="#289417" transform="translate(352,283)"/>
<path d="M0 0 C0.33 0.66 0.66 1.32 1 2 C0.00390625 4.6015625 0.00390625 4.6015625 -1.4375 7.625 C-1.91058594 8.62789063 -2.38367188 9.63078125 -2.87109375 10.6640625 C-3.24363281 11.43492187 -3.61617188 12.20578125 -4 13 C-5.43088528 10.13822943 -4.59991697 8.06624227 -4 5 C-4.66 4.67 -5.32 4.34 -6 4 C-4.02 2.68 -2.04 1.36 0 0 Z " fill="#2B9318" transform="translate(336,259)"/>
<path d="M0 0 C0.33 0.99 0.66 1.98 1 3 C-5.07439825 7.90153173 -5.07439825 7.90153173 -8.9375 8.3125 C-9.9584375 8.1578125 -9.9584375 8.1578125 -11 8 C-7.72291137 4.32966073 -4.28477792 2.30718811 0 0 Z " fill="#208523" transform="translate(549,117)"/>
<path d="M0 0 C0.66 0 1.32 0 2 0 C2 0.99 2 1.98 2 3 C2.66 3 3.32 3 4 3 C2.9024777 5.99324263 2.32317108 6.84610901 -0.625 8.25 C-1.40875 8.4975 -2.1925 8.745 -3 9 C-2.67 6.69 -2.34 4.38 -2 2 C-1.34 2 -0.68 2 0 2 C0 1.34 0 0.68 0 0 Z " fill="#EF0E15" transform="translate(194,346)"/>
<path d="M0 0 C2.1519437 3.22791555 2.20086443 4.28400809 2 8 C1.01 8 0.02 8 -1 8 C-1 8.99 -1 9.98 -1 11 C-1.66 11 -2.32 11 -3 11 C-3.33 11.66 -3.66 12.32 -4 13 C-3.40895235 8.15340923 -2.02055843 4.39251833 0 0 Z " fill="#F5CA0C" transform="translate(341,248)"/>
<path d="M0 0 C0.1875 2.875 0.1875 2.875 0 6 C-0.99 6.66 -1.98 7.32 -3 8 C-3 7.01 -3 6.02 -3 5 C-3.99 5.33 -4.98 5.66 -6 6 C-6.66 5.34 -7.32 4.68 -8 4 C-2.25 0 -2.25 0 0 0 Z " fill="#1E8121" transform="translate(498,152)"/>
<path d="M0 0 C1.66666667 0 3.33333333 0 5 0 C4.9375 1.75 4.9375 1.75 4 4 C1.75835678 5.59501537 -0.53566643 6.74543018 -3 8 C-2.67 6.02 -2.34 4.04 -2 2 C-1.34 2 -0.68 2 0 2 C0 1.34 0 0.68 0 0 Z " fill="#E71215" transform="translate(608,72)"/>
<path d="M0 0 C0.66 0.33 1.32 0.66 2 1 C0.68 3.31 -0.64 5.62 -2 8 C-3.32 8 -4.64 8 -6 8 C-6.33 7.01 -6.66 6.02 -7 5 C-4.69 3.35 -2.38 1.7 0 0 Z " fill="#1A8420" transform="translate(138,390)"/>
<path d="M0 0 C0.66 0.33 1.32 0.66 2 1 C1 4 0 7 -1 10 C-1.66 9.67 -2.32 9.34 -3 9 C-3 7.68 -3 6.36 -3 5 C-3.99 4.67 -4.98 4.34 -6 4 C-4.02 2.68 -2.04 1.36 0 0 Z " fill="#20801F" transform="translate(248,317)"/>
<path d="M0 0 C0.33 0 0.66 0 1 0 C1 1.65 1 3.3 1 5 C-0.32 5.33 -1.64 5.66 -3 6 C-2.01 6.99 -1.02 7.98 0 9 C-1.65 9 -3.3 9 -5 9 C-5 8.34 -5 7.68 -5 7 C-6.65 7 -8.3 7 -10 7 C-9.67 6.34 -9.34 5.68 -9 5 C-7.68 5 -6.36 5 -5 5 C-4.67 4.34 -4.34 3.68 -4 3 C-2.68 3.33 -1.36 3.66 0 4 C0 2.68 0 1.36 0 0 Z " fill="#FDD70B" transform="translate(378,159)"/>
<path d="M0 0 C1.125 3.75 1.125 3.75 0 6 C0.66 6.33 1.32 6.66 2 7 C0.68 9.31 -0.64 11.62 -2 14 C-3.1171875 12.328125 -3.1171875 12.328125 -4 10 C-3.3203125 7.421875 -3.3203125 7.421875 -2.125 4.75 C-1.73570312 3.85796875 -1.34640625 2.9659375 -0.9453125 2.046875 C-0.63335937 1.37140625 -0.32140625 0.6959375 0 0 Z " fill="#1A8B1F" transform="translate(410,298)"/>
<path d="M0 0 C4.62 1.65 9.24 3.3 14 5 C11 7 11 7 8.3125 6.625 C7.549375 6.41875 6.78625 6.2125 6 6 C6 5.34 6 4.68 6 4 C5.071875 3.7834375 5.071875 3.7834375 4.125 3.5625 C2 3 2 3 0 2 C0 1.34 0 0.68 0 0 Z " fill="#DFE008" transform="translate(466,200)"/>
<path d="M0 0 C0 0.66 0 1.32 0 2 C0.66 2.33 1.32 2.66 2 3 C-2.30769231 6.07692308 -2.30769231 6.07692308 -5.8125 5.6875 C-6.534375 5.460625 -7.25625 5.23375 -8 5 C-7.67 4.01 -7.34 3.02 -7 2 C-4.56723614 0.81480735 -2.71982714 0 0 0 Z " fill="#E81216" transform="translate(504,144)"/>
<path d="M0 0 C0.99 0.33 1.98 0.66 3 1 C3.73046875 2.84765625 3.73046875 2.84765625 4.1875 5.0625 C4.34605469 5.79597656 4.50460937 6.52945312 4.66796875 7.28515625 C4.83232422 8.13400391 4.83232422 8.13400391 5 9 C4.01 9.33 3.02 9.66 2 10 C0.39644899 6.49223216 -0.22036864 3.85645121 0 0 Z " fill="#158B1E" transform="translate(385,295)"/>
<path d="M0 0 C8.57142857 0.85714286 8.57142857 0.85714286 12 3 C12 2.01 12 1.02 12 0 C12.99 0 13.98 0 15 0 C14.34 1.65 13.68 3.3 13 5 C11.01853549 4.55170486 9.03985789 4.09107502 7.0625 3.625 C5.96035156 3.36976563 4.85820312 3.11453125 3.72265625 2.8515625 C2.82417969 2.57054687 1.92570312 2.28953125 1 2 C0.67 1.34 0.34 0.68 0 0 Z " fill="#F2230E" transform="translate(364,157)"/>
<path d="M0 0 C2.51083114 1.25541557 2.87125446 2.50063488 4 5 C2.72125 4.95875 1.4425 4.9175 0.125 4.875 C-2.01871492 4.75787127 -2.01871492 4.75787127 -4 5 C-4.66 5.66 -5.32 6.32 -6 7 C-6.99 6.67 -7.98 6.34 -9 6 C-6.03 4.02 -3.06 2.04 0 0 Z " fill="#2B7E1F" transform="translate(323,267)"/>
<path d="M0 0 C0 5 0 5 -1.375 6.625 C-3 8 -3 8 -5 8 C-5 7.34 -5 6.68 -5 6 C-5.99 5.67 -6.98 5.34 -8 5 C-4.04 2.525 -4.04 2.525 0 0 Z " fill="#1F8220" transform="translate(570,103)"/>
<path d="M0 0 C0.66 0 1.32 0 2 0 C2.33 1.32 2.66 2.64 3 4 C0.36 5.65 -2.28 7.3 -5 9 C-5 6 -5 6 -4 4 C-3.01 3.67 -2.02 3.34 -1 3 C-0.67 2.01 -0.34 1.02 0 0 Z " fill="#ED0D13" transform="translate(649,45)"/>
<path d="M0 0 C0.66 0.33 1.32 0.66 2 1 C2 2.32 2 3.64 2 5 C-0.25 6.125 -0.25 6.125 -3 7 C-5.3125 6.125 -5.3125 6.125 -7 5 C-4.69 3.35 -2.38 1.7 0 0 Z " fill="#228020" transform="translate(147,384)"/>
<path d="M0 0 C0.66 0.33 1.32 0.66 2 1 C1.2890625 2.921875 1.2890625 2.921875 0 5 C-2.1640625 5.828125 -2.1640625 5.828125 -4.625 6.25 C-5.85089844 6.47429687 -5.85089844 6.47429687 -7.1015625 6.703125 C-7.72804687 6.80109375 -8.35453125 6.8990625 -9 7 C-6.28672425 4.15635664 -3.30410823 2.12931419 0 0 Z " fill="#228321" transform="translate(158,377)"/>
<path d="M0 0 C0.33 1.65 0.66 3.3 1 5 C0.43796875 4.82597656 -0.1240625 4.65195312 -0.703125 4.47265625 C-3.24556755 3.94946654 -5.18452337 4.09795162 -7.75 4.4375 C-8.54921875 4.53933594 -9.3484375 4.64117187 -10.171875 4.74609375 C-10.77515625 4.82988281 -11.3784375 4.91367187 -12 5 C-10.71735273 2.43470546 -9.77227651 2.33500137 -7.125 1.375 C-6.42632812 1.11460937 -5.72765625 0.85421875 -5.0078125 0.5859375 C-3 0 -3 0 0 0 Z " fill="#499D10" transform="translate(378,271)"/>
<path d="M0 0 C0.66 0 1.32 0 2 0 C1.25 5.75 1.25 5.75 -1 8 C-1 7.34 -1 6.68 -1 6 C-1.99 6.33 -2.98 6.66 -4 7 C-5 6 -5 6 -5.0625 3.4375 C-5.041875 2.633125 -5.02125 1.82875 -5 1 C-4.67 1.99 -4.34 2.98 -4 4 C-3.01 4 -2.02 4 -1 4 C-0.67 2.68 -0.34 1.36 0 0 Z " fill="#F4130C" transform="translate(381,146)"/>
<path d="M0 0 C0.66666667 1.33333333 1.33333333 2.66666667 2 4 C2.37125 4.639375 2.7425 5.27875 3.125 5.9375 C4.17440531 8.41109822 4.14780359 10.33953538 4 13 C0.10769231 8.04615385 0.10769231 8.04615385 -1 5 C-0.625 2.25 -0.625 2.25 0 0 Z " fill="#F2240B" transform="translate(414,139)"/>
<path d="M0 0 C0.78375 0.33 1.5675 0.66 2.375 1 C4.84332497 2.11866511 4.84332497 2.11866511 7 2 C6.67 2.99 6.34 3.98 6 5 C3.4375 6.1875 3.4375 6.1875 1 7 C0.67 4.69 0.34 2.38 0 0 Z " fill="#EE0F15" transform="translate(136,384)"/>
<path d="M0 0 C1.32 0.66 2.64 1.32 4 2 C1.87219421 4.34058637 -0.11562221 5.70700306 -3 7 C-3.99 5.68 -4.98 4.36 -6 3 C-5.195625 2.87625 -4.39125 2.7525 -3.5625 2.625 C-2.716875 2.41875 -1.87125 2.2125 -1 2 C-0.67 1.34 -0.34 0.68 0 0 Z " fill="#EA1014" transform="translate(169,365)"/>
<path d="M0 0 C-1.26418246 0.69965443 -2.53665402 1.38434763 -3.8125 2.0625 C-4.52019531 2.44535156 -5.22789062 2.82820312 -5.95703125 3.22265625 C-8 4 -8 4 -11 3 C-10.67 2.34 -10.34 1.68 -10 1 C-10.66 0.67 -11.32 0.34 -12 0 C-10.56359829 -0.19573608 -9.12580496 -0.38127816 -7.6875 -0.5625 C-6.88699219 -0.66691406 -6.08648437 -0.77132812 -5.26171875 -0.87890625 C-3 -1 -3 -1 0 0 Z " fill="#F4160A" transform="translate(344,195)"/>
<path d="M0 0 C0.99 0 1.98 0 3 0 C3.3125 2.75 3.3125 2.75 3 6 C0.5 8.375 0.5 8.375 -2 10 C-1.34 6.7 -0.68 3.4 0 0 Z " fill="#F4E304" transform="translate(330,275)"/>
<path d="M0 0 C-2.42755736 2.42755736 -4.89189508 3.57545191 -8 5 C-8.66 5 -9.32 5 -10 5 C-10 4.34 -10 3.68 -10 3 C-10.66 2.34 -11.32 1.68 -12 1 C-7.9472484 0.01751476 -4.16138263 -0.08159574 0 0 Z " fill="#E7E308" transform="translate(372,272)"/>
<path d="M0 0 C1.98 0.495 1.98 0.495 4 1 C3.34 1 2.68 1 2 1 C2.99 3.97 3.98 6.94 5 10 C4.01 10 3.02 10 2 10 C2 8.35 2 6.7 2 5 C1.01 4.67 0.02 4.34 -1 4 C-0.67 2.68 -0.34 1.36 0 0 Z " fill="#D1DC0F" transform="translate(452,238)"/>
<path d="M0 0 C2.34914492 2.34914492 2.73140357 3.95679446 3.625 7.125 C3.88539063 8.03507813 4.14578125 8.94515625 4.4140625 9.8828125 C4.70410156 10.93082031 4.70410156 10.93082031 5 12 C3.35 12 1.7 12 0 12 C0 8.04 0 4.08 0 0 Z " fill="#F62B0C" transform="translate(339,180)"/>
<path d="M0 0 C2.475 0.495 2.475 0.495 5 1 C4.67 1.66 4.34 2.32 4 3 C4.33 3.99 4.66 4.98 5 6 C3.02 6.99 3.02 6.99 1 8 C0.02391783 5.07175348 -0.08226668 3.04386724 0 0 Z " fill="#EC1012" transform="translate(568,96)"/>
<path d="M0 0 C0.66 0.33 1.32 0.66 2 1 C2 1.99 2 2.98 2 4 C-1.80504787 5.79682816 -2.70600835 6.07349791 -7 5 C-4.69 3.35 -2.38 1.7 0 0 Z " fill="#218220" transform="translate(625,66)"/>
<path d="M0 0 C-0.33 0.66 -0.66 1.32 -1 2 C-0.34 2.33 0.32 2.66 1 3 C0.34 3 -0.32 3 -1 3 C-1 3.66 -1 4.32 -1 5 C-2.32 4.67 -3.64 4.34 -5 4 C-5.33 2.68 -5.66 1.36 -6 0 C-3 -1 -3 -1 0 0 Z " fill="#0F8C21" transform="translate(485,202)"/>
<path d="M0 0 C1 2 1 2 0.22265625 4.3828125 C-0.16019531 5.28773438 -0.54304688 6.19265625 -0.9375 7.125 C-1.31777344 8.03507813 -1.69804687 8.94515625 -2.08984375 9.8828125 C-2.39019531 10.58148438 -2.69054687 11.28015625 -3 12 C-3.33 12 -3.66 12 -4 12 C-4.49230769 4.61538462 -4.49230769 4.61538462 -2 1.5 C-1.34 1.005 -0.68 0.51 0 0 Z " fill="#F33209" transform="translate(389,131)"/>
<path d="M0 0 C0.928125 0.20625 1.85625 0.4125 2.8125 0.625 C2.8125 1.285 2.8125 1.945 2.8125 2.625 C0.16511084 4.0856285 -1.08198334 4.625 -4.1875 4.625 C-4.1875 3.965 -4.1875 3.305 -4.1875 2.625 C-4.8475 2.295 -5.5075 1.965 -6.1875 1.625 C-3.1875 -0.375 -3.1875 -0.375 0 0 Z " fill="#1B801F" transform="translate(529.1875,132.375)"/>
<path d="M0 0 C3.3 0 6.6 0 10 0 C7.63707344 2.52588702 6.33537489 3.88820837 3 5 C2.67 4.01 2.34 3.02 2 2 C1.34 1.34 0.68 0.68 0 0 Z " fill="#EB0E14" transform="translate(522,128)"/>
<path d="M0 0 C0.91058531 3.07322544 1.08886184 5.80097361 1 9 C-0.32 9 -1.64 9 -3 9 C-2.67 7.02 -2.34 5.04 -2 3 C-1.34 3 -0.68 3 0 3 C0 2.01 0 1.02 0 0 Z " fill="#208F1B" transform="translate(405,311)"/>
<path d="M0 0 C6.0546875 -0.1953125 6.0546875 -0.1953125 8 0 C10 2 10 2 10 4 C6.44219804 3.39009109 3.3171411 2.4216319 0 1 C0 0.67 0 0.34 0 0 Z " fill="#339418" transform="translate(462,198)"/>
<path d="M0 0 C0.66 0.33 1.32 0.66 2 1 C2.56638908 5.81430721 0.82561627 8.20307814 -2 12 C-2.93423645 8.98968256 -3.04449911 8.13349732 -2 5 C-1.34 5 -0.68 5 0 5 C0 3.35 0 1.7 0 0 Z " fill="#F7EB03" transform="translate(386,142)"/>
<path d="M0 0 C-2.36292656 2.52588702 -3.66462511 3.88820837 -7 5 C-7.33 3.68 -7.66 2.36 -8 1 C-5.29120665 -0.35439668 -2.99066732 -0.06501451 0 0 Z " fill="#E61214" transform="translate(724,0)"/>
<path d="M0 0 C0.99 0.33 1.98 0.66 3 1 C2.34 3.31 1.68 5.62 1 8 C0.34 8 -0.32 8 -1 8 C-1.93065133 5.39417629 -2.14917407 4.35801776 -1.0625 1.75 C-0.711875 1.1725 -0.36125 0.595 0 0 Z " fill="#F50E0E" transform="translate(338,247)"/>
<path d="M0 0 C2.97 0.99 5.94 1.98 9 3 C8.01 3.33 7.02 3.66 6 4 C6 4.99 6 5.98 6 7 C5.34 7 4.68 7 4 7 C4 6.01 4 5.02 4 4 C2.68 3.34 1.36 2.68 0 2 C0 1.34 0 0.68 0 0 Z " fill="#F2180B" transform="translate(324,231)"/>
<path d="M0 0 C0.66 0.33 1.32 0.66 2 1 C1.01 1.33 0.02 1.66 -1 2 C-2.20882096 4.00016466 -2.20882096 4.00016466 -3 6 C-4.32 5.67 -5.64 5.34 -7 5 C-7 4.34 -7 3.68 -7 3 C-4.69631264 1.93347808 -2.35981813 0.93578995 0 0 Z " fill="#FBC00C" transform="translate(299,213)"/>
<path d="M0 0 C0.33 0.99 0.66 1.98 1 3 C1.66 3 2.32 3 3 3 C3.33 2.34 3.66 1.68 4 1 C4 3.97 4 6.94 4 10 C0.48283697 6.48283697 0.45323837 4.80432667 0 0 Z " fill="#F21F09" transform="translate(409,129)"/>
<path d="M0 0 C-1.75 2.0625 -1.75 2.0625 -4 4 C-6.25 3.75 -6.25 3.75 -8 3 C-8 2.34 -8 1.68 -8 1 C-3.375 -1.125 -3.375 -1.125 0 0 Z " fill="#EC0F14" transform="translate(697,18)"/>
<path d="M0 0 C1.98 0 3.96 0 6 0 C5.67 0.99 5.34 1.98 5 3 C2.4375 4.1875 2.4375 4.1875 0 5 C-0.33 4.01 -0.66 3.02 -1 2 C-0.67 1.34 -0.34 0.68 0 0 Z " fill="#EA0E14" transform="translate(248,312)"/>
<path d="M0 0 C1.98 0.495 1.98 0.495 4 1 C4 1.66 4 2.32 4 3 C4.66 3.33 5.32 3.66 6 4 C3.69 5.32 1.38 6.64 -1 8 C-0.67 6.68 -0.34 5.36 0 4 C0.66 4 1.32 4 2 4 C2 3.01 2 2.02 2 1 C1.34 0.67 0.68 0.34 0 0 Z " fill="#EA1013" transform="translate(292,281)"/>
<path d="M0 0 C0.66 0 1.32 0 2 0 C2.99 2.97 3.98 5.94 5 9 C3.68 8.67 2.36 8.34 1 8 C0.67 5.36 0.34 2.72 0 0 Z " fill="#D6D90A" transform="translate(456,249)"/>
<path d="M0 0 C-0.62759865 2.92879371 -1.58622659 5.36095629 -3 8 C-4.4606285 5.35261084 -5 4.10551666 -5 1 C-2 0 -2 0 0 0 Z " fill="#118C17" transform="translate(463,248)"/>
<path d="M0 0 C0 0.66 0 1.32 0 2 C-1.96466413 3.06775224 -3.96855359 4.06553465 -6 5 C-6.66 4.67 -7.32 4.34 -8 4 C-7.67 3.01 -7.34 2.02 -7 1 C-4.53721199 -0.231394 -2.7204945 -0.07159196 0 0 Z " fill="#DBDD0B" transform="translate(506,216)"/>
<path d="M0 0 C2 1 2 1 2.8515625 3.28515625 C3.10679687 4.20167969 3.36203125 5.11820313 3.625 6.0625 C3.88539063 6.98160156 4.14578125 7.90070313 4.4140625 8.84765625 C4.60742188 9.55792969 4.80078125 10.26820313 5 11 C4.01 10.67 3.02 10.34 2 10 C1.34 6.7 0.68 3.4 0 0 Z " fill="#F54107" transform="translate(332,164)"/>
<path d="M0 0 C0.33 0.66 0.66 1.32 1 2 C0.67 2.99 0.34 3.98 0 5 C-0.66 5 -1.32 5 -2 5 C-2.33 6.98 -2.66 8.96 -3 11 C-3.66 9.68 -4.32 8.36 -5 7 C-4.34 7 -3.68 7 -3 7 C-2.87625 6.030625 -2.7525 5.06125 -2.625 4.0625 C-2.41875 3.051875 -2.2125 2.04125 -2 1 C-1.34 0.67 -0.68 0.34 0 0 Z " fill="#FCC60D" transform="translate(468,157)"/>
<path d="M0 0 C0.66 0.33 1.32 0.66 2 1 C1.45276317 4.37462715 0.9451 6.08235 -1 9 C-1 7.35 -1 5.7 -1 4 C-1.66 3.67 -2.32 3.34 -3 3 C-2.01 2.01 -1.02 1.02 0 0 Z " fill="#F82511" transform="translate(391,122)"/>
<path d="M0 0 C2.31 0.33 4.62 0.66 7 1 C7 1.66 7 2.32 7 3 C5.02 3.33 3.04 3.66 1 4 C0.67 2.68 0.34 1.36 0 0 Z " fill="#E2DB07" transform="translate(353,276)"/>
<path d="M0 0 C2.95183101 2.95183101 3.08663988 5.95511947 4 10 C2.68 9.34 1.36 8.68 0 8 C0 5.36 0 2.72 0 0 Z " fill="#C5D60D" transform="translate(461,258)"/>
<path d="M0 0 C1.46067199 0.45082469 2.91848032 0.91093537 4.375 1.375 C5.18710937 1.63023437 5.99921875 1.88546875 6.8359375 2.1484375 C9 3 9 3 11 5 C6.62886504 4.49172849 3.61004338 3.54826592 0 1 C0 0.67 0 0.34 0 0 Z " fill="#F9EB05" transform="translate(315,225)"/>
<path d="M0 0 C0 0.99 0 1.98 0 3 C-0.99 3.33 -1.98 3.66 -3 4 C-3 4.66 -3 5.32 -3 6 C-4.65 6 -6.3 6 -8 6 C-5.51047079 3.33264727 -3.36591866 1.44253657 0 0 Z " fill="#347A1F" transform="translate(594,87)"/>
<path d="M0 0 C-2.36292656 2.52588702 -3.66462511 3.88820837 -7 5 C-7.33 3.68 -7.66 2.36 -8 1 C-5.29120665 -0.35439668 -2.99066732 -0.06501451 0 0 Z " fill="#F00D14" transform="translate(688,24)"/>
<path d="M0 0 C0 0.66 0 1.32 0 2 C-0.99 2.66 -1.98 3.32 -3 4 C-4.01868662 4.98095748 -5.02351983 5.97702078 -6 7 C-6.99 6.34 -7.98 5.68 -9 5 C-7.87926138 4.16094435 -6.75325453 3.32892169 -5.625 2.5 C-4.99851562 2.0359375 -4.37203125 1.571875 -3.7265625 1.09375 C-2 0 -2 0 0 0 Z " fill="#347820" transform="translate(720,4)"/>
<path d="M0 0 C1.98 0 3.96 0 6 0 C6 0.66 6 1.32 6 2 C2.53846154 5 2.53846154 5 0 5 C0 3.35 0 1.7 0 0 Z " fill="#E90E11" transform="translate(80,424)"/>
<path d="M0 0 C0.66 0.33 1.32 0.66 2 1 C0.875 2.9375 0.875 2.9375 -1 5 C-4.1875 5.75 -4.1875 5.75 -7 6 C-4.74259377 3.66475218 -2.7194239 1.81294927 0 0 Z " fill="#387A20" transform="translate(129,396)"/>
<path d="M0 0 C0.66 0.33 1.32 0.66 2 1 C1.0022242 3.99332739 0.2477975 4.94766315 -2 7 C-2.66 6.67 -3.32 6.34 -4 6 C-4 5.01 -4 4.02 -4 3 C-2 1.3125 -2 1.3125 0 0 Z " fill="#277E21" transform="translate(258,310)"/>
<path d="M0 0 C1.9451 2.91765 2.45276317 4.62537285 3 8 C0.525 7.01 0.525 7.01 -2 6 C-1.34 4.02 -0.68 2.04 0 0 Z " fill="#CCDE08" transform="translate(472,285)"/>
<path d="M0 0 C0.66 0.33 1.32 0.66 2 1 C2 1.99 2 2.98 2 4 C-0.64 4.33 -3.28 4.66 -6 5 C-4.06745228 2.9754262 -2.36841312 1.57894208 0 0 Z " fill="#2E7D21" transform="translate(299,283)"/>
<path d="M0 0 C0.66 0 1.32 0 2 0 C2.33 1.98 2.66 3.96 3 6 C2.34 6 1.68 6 1 6 C1 6.66 1 7.32 1 8 C0.34 8 -0.32 8 -1 8 C-0.67 5.36 -0.34 2.72 0 0 Z " fill="#03852E" transform="translate(378,280)"/>
<path d="M0 0 C0 0.66 0 1.32 0 2 C0.66 2.33 1.32 2.66 2 3 C-2.43076923 5.09230769 -2.43076923 5.09230769 -5.3125 4.625 C-5.869375 4.41875 -6.42625 4.2125 -7 4 C-2.25 0 -2.25 0 0 0 Z " fill="#2B7D21" transform="translate(314,274)"/>
<path d="M0 0 C0.66 0.33 1.32 0.66 2 1 C2.625 3.0625 2.625 3.0625 3 5 C2.01 5.33 1.02 5.66 0 6 C0 6.66 0 7.32 0 8 C-0.66 7.67 -1.32 7.34 -2 7 C-1.34 4.69 -0.68 2.38 0 0 Z " fill="#208F18" transform="translate(457,184)"/>
<path d="M0 0 C0.66 0 1.32 0 2 0 C2 1.65 2 3.3 2 5 C1.01 5 0.02 5 -1 5 C-1 5.66 -1 6.32 -1 7 C-1.66 7 -2.32 7 -3 7 C-1.125 2.25 -1.125 2.25 0 0 Z " fill="#28941C" transform="translate(461,176)"/>
<path d="M0 0 C0.66 0 1.32 0 2 0 C1.67 2.31 1.34 4.62 1 7 C0.01 7.33 -0.98 7.66 -2 8 C-2.125 5.125 -2.125 5.125 -2 2 C-1.34 1.34 -0.68 0.68 0 0 Z " fill="#F6E804" transform="translate(381,155)"/>
<path d="M0 0 C0.33 0.66 0.66 1.32 1 2 C0.34 2.66 -0.32 3.32 -1 4 C-0.67 4.99 -0.34 5.98 0 7 C-2.86724686 6.42655063 -3.8614515 6.1385485 -6 4 C-4.02 2.68 -2.04 1.36 0 0 Z " fill="#2A7C1F" transform="translate(556,112)"/>
<path d="M0 0 C1.2065625 0.0309375 1.2065625 0.0309375 2.4375 0.0625 C2.1075 1.0525 1.7775 2.0425 1.4375 3.0625 C2.0975 3.0625 2.7575 3.0625 3.4375 3.0625 C3.4375 3.7225 3.4375 4.3825 3.4375 5.0625 C1.7875 4.7325 0.1375 4.4025 -1.5625 4.0625 C-1.5625 3.4025 -1.5625 2.7425 -1.5625 2.0625 C-2.2225 1.7325 -2.8825 1.4025 -3.5625 1.0625 C-2.5625 0.0625 -2.5625 0.0625 0 0 Z " fill="#118823" transform="translate(651.5625,49.9375)"/>
<path d="M0 0 C0.8971875 0.309375 0.8971875 0.309375 1.8125 0.625 C-1.5215947 2.81597652 -4.22929141 4.05954163 -8.1875 4.625 C-3.2421875 -0.55580357 -3.2421875 -0.55580357 0 0 Z " fill="#2F7E23" transform="translate(669.1875,38.375)"/>
<path d="M0 0 C0.66 0.33 1.32 0.66 2 1 C2 1.66 2 2.32 2 3 C1.34 3 0.68 3 0 3 C0 3.66 0 4.32 0 5 C-1.98 5 -3.96 5 -6 5 C-5.195625 4.360625 -4.39125 3.72125 -3.5625 3.0625 C-1.7249496 1.59396498 -1.7249496 1.59396498 0 0 Z " fill="#2A8221" transform="translate(694,20)"/>
<path d="M0 0 C1.32 0 2.64 0 4 0 C4 2.64 4 5.28 4 8 C1.10067643 5.60490662 0.49831724 3.68754757 0 0 Z " fill="#C2D004" transform="translate(384,288)"/>
<path d="M0 0 C0.99 0.33 1.98 0.66 3 1 C0.69 2.65 -1.62 4.3 -4 6 C-4.33 5.01 -4.66 4.02 -5 3 C-2.6875 1.4375 -2.6875 1.4375 0 0 Z " fill="#E70D13" transform="translate(309,274)"/>
<path d="M0 0 C0.33 0.99 0.66 1.98 1 3 C1.66 3.33 2.32 3.66 3 4 C0.92446352 4.5534764 -0.84365964 5 -3 5 C-3.99 5.495 -3.99 5.495 -5 6 C-3.63016497 2.83884224 -3.0109362 2.0072908 0 0 Z " fill="#EE0E12" transform="translate(319,265)"/>
<path d="M0 0 C-0.639375 0.28875 -1.27875 0.5775 -1.9375 0.875 C-4.15206079 1.82823451 -4.15206079 1.82823451 -5 4 C-7.97 3.505 -7.97 3.505 -11 3 C-3.71428571 -1.85714286 -3.71428571 -1.85714286 0 0 Z " fill="#F89B08" transform="translate(325,204)"/>
<path d="M0 0 C-3.44450737 2.29633824 -5.93812283 2.54016485 -10 3 C-9.67 2.01 -9.34 1.02 -9 0 C-5.8033 -1.37001429 -3.30096158 -0.8252404 0 0 Z " fill="#F8CB02" transform="translate(360,155)"/>
<path d="M0 0 C0.33 0.66 0.66 1.32 1 2 C3.52733235 2.65555119 3.52733235 2.65555119 6 3 C6 3.33 6 3.66 6 4 C3.69 4.33 1.38 4.66 -1 5 C-1.33 3.68 -1.66 2.36 -2 1 C-1.34 0.67 -0.68 0.34 0 0 Z " fill="#EE2305" transform="translate(291,216)"/>
<path d="M0 0 C2.475 0.495 2.475 0.495 5 1 C4.34 2.65 3.68 4.3 3 6 C2.67 5.34 2.34 4.68 2 4 C1.34 4 0.68 4 0 4 C0 2.68 0 1.36 0 0 Z " fill="#E7D407" transform="translate(457,173)"/>
<path d="M0 0 C0.99 0.33 1.98 0.66 3 1 C2.67 1.66 2.34 2.32 2 3 C1.34 3 0.68 3 0 3 C0 3.66 0 4.32 0 5 C-1.32 4.34 -2.64 3.68 -4 3 C-2.1875 1.4375 -2.1875 1.4375 0 0 Z " fill="#218520" transform="translate(700,16)"/>
</svg>
